# xmcd
#
# Track frame offsets: 
#        150
#        24734
#        29624
#        43144
#        60238
#        62290
#        67171
#        88508
#        93492
#        95014
#        114999
#        129789
#        142205
#        146037
#        158432
#        183866
#        203776
#
# Disc length: 2959 seconds
#
# Revision: 0
# Processed by: cddbd v1.5.2PL0 Copyright (c) Steve Scherf et al.
# Submitted via: ExactAudioCopy v0.95b4
#
DISCID=ea0b8d11
DTITLE=The Beatles  - AB  Road - Complete Purple Chick Set v1.1 Jan.31
DTITLE=Various Artist - D3  FLAC
DYEAR=1900
DGENRE=
TTITLE0=Dialogue
TTITLE1=Instrumental 31.52
TTITLE2=Let It Be 31.53
TTITLE3=Let It Be 31.54
TTITLE4=Roll Announcement
TTITLE5=Let It Be 31.55
TTITLE6=Let It Be 31.56
TTITLE7=Let It Be 31.57
TTITLE8=Let It Be - 12th Street Rag 31.58
TTITLE9=Let It Be 31.59
TTITLE10=Oh! Darling 31.60
TTITLE11=Oh! Darling 31.61a
TTITLE12=Oh! Darling 31.61b
TTITLE13=Unknown 31.62
TTITLE14=Let It Be 31.63
TTITLE15=Let It Be (27A) 31.64
TTITLE16=Let It Be (27B) 31.65
EXTD=
EXTT0=
EXTT1=
EXTT2=
EXTT3=
EXTT4=
EXTT5=
EXTT6=
EXTT7=
EXTT8=
EXTT9=
EXTT10=
EXTT11=
EXTT12=
EXTT13=
EXTT14=
EXTT15=
EXTT16=
PLAYORDER=
